HIERARCHY
ROOT Hips
{
  OFFSET 51.054 85.1297 9.10324
  CHANNELS 6 Xposition Yposition Zposition Zrotation Xrotation Yrotation
  JOINT spine
  {
    OFFSET 0 6.3926 0.367606
    CHANNELS 3 Zrotation Xrotation Yrotation
    JOINT spine1
    {
      OFFSET 0 9.17611 0
      CHANNELS 3 Zrotation Xrotation Yrotation
      JOINT spine2
      {
        OFFSET 0 8.79238 0
        CHANNELS 3 Zrotation Xrotation Yrotation
        JOINT Neck
        {
          OFFSET 0 22.5737 1.07624
          CHANNELS 3 Zrotation Xrotation Yrotation
          JOINT Head
          {
            OFFSET 0 6.82011 0
            CHANNELS 3 Zrotation Xrotation Yrotation
            End Site
            {
              OFFSET 0 16.5085 -5.44427
            }
          }
        }
        JOINT RightShoulder
        {
          OFFSET -3.70221 9.49509 -0.515508
          CHANNELS 3 Zrotation Xrotation Yrotation
          JOINT RightArm
          {
            OFFSET 0 12.4537 0
            CHANNELS 3 Zrotation Xrotation Yrotation
            JOINT RightArmRoll
            {
              OFFSET 0 6.28686 0
              CHANNELS 3 Zrotation Xrotation Yrotation
              JOINT RightForeArm
              {
                OFFSET 0 18.3114 0
                CHANNELS 3 Zrotation Xrotation Yrotation
                JOINT RightForeArmRoll
                {
                  OFFSET 0 7.05483 0
                  CHANNELS 3 Zrotation Xrotation Yrotation
                  JOINT RightHand
                  {
                    OFFSET 0 14.1575 0
                    CHANNELS 3 Zrotation Xrotation Yrotation
                    End Site
                    {
                      OFFSET 0 0 0
                    }
                  }
                }
              }
            }
          }
        }
        JOINT LeftShoulder
        {
          OFFSET 3.70221 9.49509 -0.515508
          CHANNELS 3 Zrotation Xrotation Yrotation
          JOINT LeftArm
          {
            OFFSET 0 12.4537 0
            CHANNELS 3 Zrotation Xrotation Yrotation
            JOINT LeftArmRoll
            {
              OFFSET 0 6.28686 0
              CHANNELS 3 Zrotation Xrotation Yrotation
              JOINT LeftForeArm
              {
                OFFSET 0 18.3114 0
                CHANNELS 3 Zrotation Xrotation Yrotation
                JOINT LeftForeArmRoll
                {
                  OFFSET 0 7.05482 0
                  CHANNELS 3 Zrotation Xrotation Yrotation
                  JOINT LeftHand
                  {
                    OFFSET 0 14.1575 0
                    CHANNELS 3 Zrotation Xrotation Yrotation
                    End Site
                    {
                      OFFSET 0 0 0
                    }
                  }
                }
              }
            }
          }
        }
      }
    }
  }
  JOINT RightUpLeg
  {
    OFFSET -5.66616 -1.03903 -0.87161
    CHANNELS 3 Zrotation Xrotation Yrotation
    JOINT RightUpLegRoll
    {
      OFFSET 0 16.6005 0
      CHANNELS 3 Zrotation Xrotation Yrotation
      JOINT RightLeg
      {
        OFFSET 0 -20.5572 0
        CHANNELS 3 Zrotation Xrotation Yrotation
        JOINT RightLegRoll
        {
          OFFSET 0 20.6244 0
          CHANNELS 3 Zrotation Xrotation Yrotation
          JOINT RightFoot
          {
            OFFSET 0 17.1664 0
            CHANNELS 3 Zrotation Xrotation Yrotation
            JOINT RightToeBase
            {
              OFFSET 0 14.3502 0
              CHANNELS 3 Zrotation Xrotation Yrotation
              End Site
              {
                OFFSET 0.00608252 6.94971 -0.801061
              }
            }
          }
        }
      }
    }
  }
  JOINT LeftUpLeg
  {
    OFFSET 5.66616 -1.03903 -0.87161
    CHANNELS 3 Zrotation Xrotation Yrotation
    JOINT LeftUpLegRoll
    {
      OFFSET 0 16.6006 0
      CHANNELS 3 Zrotation Xrotation Yrotation
      JOINT LeftLeg
      {
        OFFSET 0 20.5571 0
        CHANNELS 3 Zrotation Xrotation Yrotation
        JOINT LeftLegRoll
        {
          OFFSET 0 20.8151 0
          CHANNELS 3 Zrotation Xrotation Yrotation
          JOINT LeftFoot
          {
            OFFSET 0 16.9757 0
            CHANNELS 3 Zrotation Xrotation Yrotation
            JOINT LeftToeBase
            {
              OFFSET 0 14.3502 0
              CHANNELS 3 Zrotation Xrotation Yrotation
              End Site
              {
                OFFSET -0.0272592 6.94971 -0.801061
              }
            }
          }
        }
      }
    }
  }
}
MOTION
Frames: 9
Frame Time: 0.00208333
54.8845 85.9036 17.3753 -1.92578 -4.18559 -1.251 0.42626 -0.820437 -0.0457784 0.847886 2.34792 -0.143909 0.85041 3.99289 -0.15843 -3.90022 5.49661 1.40271 3.16078 7.90681 0.466878 54.9183 0.621362 0.947019 112.528 14.5146 4.35786 -1.40288e-005 1.29829e-006 -7.40048e-006 13.0308 6.86125 -1.28936 -4.15824e-006 -1.53947e-006 -3 8.02887 -4.95146 0.697704 -54.0052 -4.16451 2.19012 -110.618 18.3452 3.09191 5.06602e-006 3.18523e-006 4.21699e-006 -12.5228 6.6482 1.23447 5.53819e-007 -4.75789e-006 3.00002 -8.02887 -4.95144 -0.697683 175.009 -2.79408 1.22024 180 7.01516e-015 178.795 176.954 5.06496 179.759 -2.70735e-006 5.51936e-006 0.0545202 -18.6765 67.8032 19.3823 8.13344 25.2328 -3.48643 -172.294 -3.48051 -0.845833 4.5067e-006 -1.99009e-005 -1.20894 -0.398572 -5.6358 0.519345 2.92849e-006 -6.75993e-007 -0.00446277 18.1846 68.1426 -19.6471 -8.13689 25.2386 3.48007 
54.8818 85.9061 17.3698 -1.92463 -4.18528 -1.25174 0.426258 -0.820235 -0.0459362 0.84859 2.3483 -0.143847 0.851118 3.99327 -0.158388 -3.90715 5.49934 1.40951 3.16179 7.90464 0.47152 54.9174 0.630275 0.953068 112.525 14.5092 4.34823 -1.40288e-005 1.29829e-006 -7.40048e-006 13.0399 6.85982 -1.28883 -4.15824e-006 -1.53947e-006 -3 8.02887 -4.95146 0.697704 -54.0068 -4.16281 2.18907 -110.611 18.337 3.08845 5.06602e-006 3.18523e-006 4.21699e-006 -12.5266 6.6488 1.23455 5.53819e-007 -4.75789e-006 3.00002 -8.02887 -4.95144 -0.697683 175.007 -2.79434 1.22616 180 7.01516e-015 178.795 176.945 5.06351 179.76 -2.70735e-006 5.51936e-006 0.0545202 -18.677 67.8037 19.3832 8.13344 25.2328 -3.48643 -172.294 -3.48299 -0.839727 4.5067e-006 -1.99009e-005 -1.2093 -0.389813 -5.62481 0.519885 2.92849e-006 -6.75993e-007 -0.0044667 18.1777 68.136 -19.6416 -8.13689 25.2386 3.48007 
54.8814 85.9016 17.3711 -1.92351 -4.18495 -1.25248 0.426257 -0.820038 -0.0460854 0.849326 2.34864 -0.143738 0.851858 3.99361 -0.158301 -3.91417 5.50186 1.41629 3.16309 7.90283 0.476092 54.9168 0.639069 0.959007 112.522 14.5041 4.34 -1.40288e-005 1.29829e-006 -7.40048e-006 13.0483 6.85647 -1.28806 -4.15824e-006 -1.53947e-006 -3 8.02887 -4.95146 0.697704 -54.0086 -4.1609 2.18791 -110.605 18.3289 3.08434 5.06602e-006 3.18523e-006 4.21699e-006 -12.53 6.64867 1.23452 5.53819e-007 -4.75789e-006 3.00002 -8.02887 -4.95144 -0.697683 175.004 -2.79465 1.23318 180 7.01516e-015 178.795 176.934 5.06183 179.76 -2.70735e-006 5.51936e-006 0.0545202 -18.6775 67.8043 19.3843 8.13344 25.2328 -3.48643 -172.294 -3.48596 -0.83356 4.5067e-006 -1.99009e-005 -1.20972 -0.380975 -5.61273 0.520371 2.92849e-006 -6.75993e-007 -0.00447258 18.1708 68.1289 -19.6358 -8.13689 25.2386 3.48007 
54.8774 85.9026 17.376 -1.9224 -4.1846 -1.2532 0.426257 -0.819844 -0.0462285 0.850086 2.34896 -0.143596 0.85262 3.99393 -0.158181 -3.92126 5.50424 1.42304 3.16459 7.90126 0.480616 54.9163 0.647779 0.96487 112.519 14.4993 4.33274 -1.40288e-005 1.29829e-006 -7.40048e-006 13.0563 6.85178 -1.28713 -4.15824e-006 -1.53947e-006 -3 8.02887 -4.95146 0.697704 -54.0104 -4.15886 2.18666 -110.597 18.3208 3.07977 5.06602e-006 3.18523e-006 4.21699e-006 -12.5331 6.64805 1.23443 5.53819e-007 -4.75789e-006 3.00002 -8.02887 -4.95144 -0.697683 175 -2.79499 1.24096 180 7.01516e-015 178.795 176.921 5.05995 179.761 -2.70735e-006 5.51936e-006 0.0545202 -18.678 67.8049 19.3855 8.13344 25.2328 -3.48643 -172.295 -3.48929 -0.82735 4.5067e-006 -1.99009e-005 -1.21017 -0.372083 -5.59986 0.520819 2.92849e-006 -6.75993e-007 -0.00447983 18.1638 68.1214 -19.6296 -8.13689 25.2386 3.48007 
54.8748 85.901 17.3744 -1.92129 -4.18423 -1.25393 0.426257 -0.819653 -0.0463682 0.850858 2.34926 -0.143435 0.853396 3.99423 -0.158044 -3.9284 5.50652 1.42977 3.1662 7.89984 0.485113 54.9158 0.656442 0.970689 112.516 14.4945 4.32603 -1.40288e-005 1.29829e-006 -7.40048e-006 13.0639 6.84633 -1.2861 -4.15824e-006 -1.53947e-006 -3 8.02887 -4.95146 0.697704 -54.0123 -4.15674 2.18536 -110.59 18.3127 3.07494 5.06602e-006 3.18523e-006 4.21699e-006 -12.536 6.64713 1.23429 5.53819e-007 -4.75789e-006 3.00002 -8.02887 -4.95144 -0.697683 174.996 -2.79535 1.24918 180 7.01516e-015 178.795 176.909 5.05802 179.762 -2.70735e-006 5.51936e-006 0.0545202 -18.6786 67.8056 19.3868 8.13344 25.2328 -3.48643 -172.295 -3.49281 -0.821115 4.5067e-006 -1.99009e-005 -1.21064 -0.363159 -5.58656 0.521245 2.92849e-006 -6.75993e-007 -0.00448786 18.1568 68.1137 -19.6233 -8.13689 25.2386 3.48007 
54.8803 85.903 17.3778 -1.9202 -4.18387 -1.25465 0.426257 -0.819461 -0.0465071 0.851634 2.34956 -0.143269 0.854175 3.99452 -0.157902 -3.93554 5.50879 1.43651 3.16784 7.89845 0.489602 54.9154 0.665093 0.976498 112.512 14.4898 4.31947 -1.40288e-005 1.29829e-006 -7.40048e-006 13.0716 6.84069 -1.28506 -4.15824e-006 -1.53947e-006 -3 8.02887 -4.95146 0.697704 -54.0143 -4.15461 2.18405 -110.583 18.3046 3.07004 5.06602e-006 3.18523e-006 4.21699e-006 -12.5389 6.64615 1.23415 5.53819e-007 -4.75789e-006 3.00002 -8.02887 -4.95144 -0.697683 174.993 -2.79572 1.25751 180 7.01516e-015 178.795 176.896 5.05602 179.763 -2.70735e-006 5.51936e-006 0.0545202 -18.6792 67.8063 19.388 8.13344 25.2328 -3.48643 -172.296 -3.49639 -0.814874 4.5067e-006 -1.99009e-005 -1.21113 -0.354228 -5.57314 0.521665 2.92849e-006 -6.75993e-007 -0.00449609 18.1498 68.106 -19.6169 -8.13689 25.2386 3.48007 
54.8779 85.9019 17.3772 -1.91909 -4.18351 -1.25537 0.426257 -0.819269 -0.0466476 0.852403 2.34986 -0.143113 0.854947 3.99483 -0.157769 -3.94266 5.5111 1.44325 3.16943 7.89699 0.494106 54.915 0.673768 0.982328 112.509 14.485 4.31263 -1.40288e-005 1.29829e-006 -7.40048e-006 13.0793 6.83543 -1.28405 -4.15824e-006 -1.53947e-006 -3 8.02887 -4.95146 0.697704 -54.0162 -4.15251 2.18276 -110.576 18.2964 3.06528 5.06602e-006 3.18523e-006 4.21699e-006 -12.5418 6.64531 1.23402 5.53819e-007 -4.75789e-006 3.00002 -8.02887 -4.95144 -0.697683 174.989 -2.79608 1.26562 180 7.01516e-015 178.795 176.883 5.0541 179.764 -2.70735e-006 5.51936e-006 0.0545202 -18.6798 67.807 19.3893 8.13344 25.2328 -3.48643 -172.296 -3.49987 -0.808646 4.5067e-006 -1.99009e-005 -1.2116 -0.345312 -5.55994 0.522097 2.92849e-006 -6.75993e-007 -0.00450392 18.1428 68.0984 -19.6106 -8.13689 25.2386 3.48007 
54.8756 85.8994 17.3694 -1.91798 -4.18316 -1.2561 0.426257 -0.819075 -0.0467925 0.853155 2.35018 -0.142981 0.855704 3.99515 -0.157659 -3.94974 5.51352 1.45001 3.17087 7.89536 0.498644 54.9144 0.682502 0.988213 112.506 14.4801 4.30509 -1.40288e-005 1.29829e-006 -7.40048e-006 13.0874 6.83112 -1.28317 -4.15824e-006 -1.53947e-006 -3 8.02887 -4.95146 0.697704 -54.018 -4.1505 2.18154 -110.569 18.2883 3.06084 5.06602e-006 3.18523e-006 4.21699e-006 -12.545 6.64482 1.23395 5.53819e-007 -4.75789e-006 3.00002 -8.02887 -4.95144 -0.697683 174.985 -2.79641 1.27319 180 7.01516e-015 178.795 176.871 5.05228 179.765 -2.70735e-006 5.51936e-006 0.0545202 -18.6803 67.8077 19.3904 8.13344 25.2328 -3.48643 -172.296 -3.50309 -0.802448 4.5067e-006 -1.99009e-005 -1.21204 -0.336436 -5.5473 0.522555 2.92849e-006 -6.75993e-007 -0.00451078 18.1358 68.091 -19.6046 -8.13689 25.2386 3.48007 
54.8786 85.9031 17.3711 -1.91684 -4.18284 -1.25684 0.426256 -0.818876 -0.0469443 0.853882 2.35053 -0.142886 0.856434 3.9955 -0.157585 -3.95674 5.5161 1.45679 3.17208 7.89344 0.503237 54.9137 0.691331 0.994185 112.503 14.4749 4.29644 -1.40288e-005 1.29829e-006 -7.40048e-006 13.096 6.82835 -1.28247 -4.15824e-006 -1.53947e-006 -3 8.02887 -4.95146 0.697704 -54.0198 -4.14866 2.18041 -110.562 18.2802 3.05692 5.06602e-006 3.18523e-006 4.21699e-006 -12.5485 6.64492 1.23395 5.53819e-007 -4.75789e-006 3.00002 -8.02887 -4.95144 -0.697683 174.983 -2.79671 1.27988 180 7.01516e-015 178.795 176.86 5.05068 179.766 -2.70735e-006 5.51936e-006 0.0545202 -18.6808 67.8083 19.3915 8.13344 25.2328 -3.48643 -172.297 -3.50592 -0.796299 4.5067e-006 -1.99009e-005 -1.21244 -0.327624 -5.53554 0.523058 2.92849e-006 -6.75993e-007 -0.00451608 18.1289 68.084 -19.5989 -8.13689 25.2386 3.48007 
